<svg width="272" height="281" viewBox="0 0 272 281" fill="none" xmlns="http://www.w3.org/2000/svg">
<path d="M125.671 5.1385C120.351 8.02076 111.115 13.0752 105.119 16.3334C69.3825 35.9244 57.4382 42.4408 35.2422 54.3875C3.423 71.514 1.44034 72.6001 1.05349 73.1431C0.860056 73.3938 0.666626 103.72 0.666626 140.521V207.44L2.74599 208.651C4.4385 209.654 27.6501 222.311 41.2868 229.621C43.2695 230.707 55.6006 237.39 68.6088 244.45C81.6653 251.551 95.6889 259.153 99.7993 261.367C112.517 268.218 131.377 278.535 133.504 279.789C134.617 280.457 135.632 281 135.729 281C135.971 281 140.951 278.327 160.488 267.842C175.285 259.905 205.218 243.656 210.054 240.983C212.569 239.604 216.727 237.348 219.242 236.053C221.757 234.717 227.269 231.751 231.428 229.453C240.809 224.274 250.142 219.219 257.444 215.335C260.491 213.705 264.408 211.575 266.149 210.614C267.89 209.654 269.872 208.568 270.646 208.192L271.952 207.481V155.643C271.952 121.724 271.807 103.845 271.468 103.971C271.226 104.013 266.342 106.519 260.588 109.526L250.239 114.957L250.191 156.186V197.414L242.599 201.466C238.392 203.722 230.606 207.899 225.287 210.781C203.719 222.436 166.194 242.612 148.06 252.303L135.584 258.944L132.344 257.065C128.427 254.851 119.046 249.755 101.685 240.356C94.5767 236.555 84.7601 231.208 79.9244 228.535C75.0403 225.861 65.9008 220.89 59.6627 217.507C36.5478 205.017 29.8261 201.341 26.1993 199.211L22.4275 196.997V167.005C22.4275 150.505 22.5725 136.929 22.7176 136.762C22.8627 136.636 23.9265 137.012 25.0388 137.597C30.0196 140.312 46.2677 149.335 49.7494 151.34L53.618 153.554L53.8598 143.111L54.1016 132.668L65.0787 138.85C71.1234 142.234 84.3733 149.627 94.48 155.183L112.856 165.375V175.025V184.716L118.175 187.64C121.077 189.269 126.057 191.984 129.201 193.739L134.955 196.913L153.766 186.888C164.115 181.374 175.624 175.275 179.347 173.312C183.071 171.349 192.742 166.253 200.866 161.95C208.99 157.648 218.613 152.593 222.289 150.714L228.914 147.246V136.428V125.65L226.157 127.029C221.225 129.535 191.775 144.907 180.556 150.881C174.56 154.055 163.679 159.778 156.377 163.621C149.075 167.422 141.29 171.558 139.066 172.769C136.309 174.273 135.003 174.774 134.858 174.356C134.713 174.064 134.665 169.553 134.713 164.289L134.858 154.724L138.727 152.635C142.451 150.63 149.366 146.954 164.84 138.767C168.854 136.678 179.734 130.914 189.019 125.943C198.352 121.014 209.861 114.957 214.648 112.45C219.436 109.986 227.511 105.767 232.54 103.052C237.618 100.378 246.854 95.4911 253.092 92.2329C259.33 88.9747 266.1 85.4241 268.083 84.338L271.71 82.3329L271.855 77.8633L272 73.3938L266.294 70.1773C259.959 66.6267 217.743 43.7357 217.501 43.7357C217.404 43.7357 217.259 48.4142 217.211 54.1787L217.066 64.5799L211.021 61.3634C202.655 56.8521 172.239 40.1433 163.293 35.1725L155.894 31.0788V21.0118V10.9448L145.932 5.51444C140.468 2.50687 135.826 0.0423265 135.68 0.000554614C135.487 -0.0412173 130.99 2.25624 125.671 5.1385ZM134.423 42.7332C134.326 42.9838 130.216 45.323 125.332 47.9129C120.496 50.5445 113.339 54.3875 109.471 56.5179C93.5128 65.2065 49.5076 88.9747 39.5943 94.1961C33.7431 97.2873 27.6017 100.545 25.9575 101.423C24.265 102.342 22.8143 103.052 22.6692 103.052C22.5242 103.052 22.4758 98.5822 22.5242 93.1518L22.6692 83.2519L30.89 78.7823C35.4356 76.3178 40.9483 73.2684 43.2211 72.0153C45.4939 70.8039 52.6508 66.8773 59.1791 63.3685C65.7073 59.8179 72.7675 55.9749 74.8952 54.8053C77.023 53.6357 79.6343 52.2154 80.6981 51.6724C81.762 51.1293 88.1935 47.6205 94.9636 43.9446C101.734 40.2269 111.308 35.0054 116.241 32.3738C121.173 29.7421 127.266 26.4004 129.781 25.0219L134.375 22.4738L134.52 32.3738C134.568 37.8041 134.52 42.4826 134.423 42.7332ZM157.49 53.9281C160.391 55.4736 189.357 71.4305 195.063 74.6469C198.642 76.652 205.46 80.3697 210.199 82.9595C214.89 85.5494 218.759 87.805 218.759 88.0139C218.759 88.181 214.987 90.2696 210.441 92.6924C205.847 95.0734 201.64 97.2873 201.108 97.5797C200.189 98.0809 199.657 97.8721 196.031 95.867C193.758 94.5721 184.183 89.2671 174.753 84.0456C165.324 78.8241 157.2 74.271 156.764 73.895C155.991 73.3102 155.894 72.2659 155.894 63.285C155.894 57.8128 155.991 53.3432 156.136 53.3432C156.281 53.3432 156.909 53.5939 157.49 53.9281ZM134.617 75.0229V84.9646L131.232 86.8025C129.394 87.805 121.27 92.2329 113.243 96.6189C105.167 101.005 96.4626 105.683 93.8997 107.062C91.2884 108.399 89.1607 109.61 89.1607 109.735C89.209 110.195 107.15 120.178 108.552 120.471C109.036 120.596 110.244 120.262 111.26 119.719C115.37 117.547 139.743 104.263 147.238 100.128L155.265 95.6582L159.908 98.2062C162.47 99.5847 167.983 102.634 172.094 104.89C176.252 107.187 179.444 109.15 179.251 109.318C179.057 109.485 177.219 110.445 175.237 111.49C173.254 112.534 168.032 115.333 163.631 117.672C152.847 123.436 149.075 125.442 134.133 133.336C127.073 137.054 119.626 140.981 117.595 142.067L113.871 144.072L103.813 138.433C98.3002 135.3 88.1935 129.702 81.4235 125.985C63.4345 116.085 52.409 109.777 52.409 109.401C52.4574 109.234 58.9857 105.642 67.013 101.381C74.992 97.1202 84.0831 92.2746 87.178 90.562C90.2729 88.8911 98.7838 84.2544 106.086 80.2861C113.388 76.3178 122.672 71.3052 126.638 69.0912C130.651 66.8773 134.036 65.0811 134.278 65.0811C134.472 65.0394 134.617 69.509 134.617 75.0229Z" fill="#09B8FF"/>
<path d="M217.308 173.062C211.07 176.445 202.704 180.873 198.69 182.92C194.725 185.008 182.829 191.358 172.239 197.08C148.012 210.155 135.729 216.671 135.294 216.671C135.003 216.671 126.444 212.035 103.668 199.545C98.3486 196.621 46.4611 168.717 44.3334 167.631C43.8498 167.381 43.7047 169.553 43.7047 177.949V188.601L47.7184 190.815C49.8945 192.026 59.6143 197.331 69.3341 202.594C79.054 207.899 93.1743 215.585 100.766 219.721C108.359 223.856 119.191 229.788 124.897 232.879L135.245 238.476L136.744 237.808C137.566 237.432 140.758 235.761 143.853 234.132C146.948 232.461 152.992 229.203 157.296 226.906C161.552 224.608 165.952 222.269 167.016 221.684C176.252 216.713 179.202 215.126 184.667 212.202C188.148 210.364 196.562 205.894 203.381 202.218C210.199 198.584 218.759 194.031 222.337 192.11L228.914 188.642V177.782C228.914 171.85 228.865 166.963 228.817 166.963C228.72 166.963 223.546 169.72 217.308 173.062Z" fill="#09B8FF"/>
</svg>
